<?xml version="1.0" encoding="iso-8859-1"?>
<!-- Uploaded to: SVG Repo, www.svgrepo.com, Generator: SVG Repo Mixer Tools -->
<svg version="1.1" id="Layer_1" xmlns="http://www.w3.org/2000/svg" xmlns:xlink="http://www.w3.org/1999/xlink" 
	 viewBox="0 0 496 496" xml:space="preserve">
<path style="fill:#FFF8EF;" d="M212,244v16H104c-4.8,0-8,4-8,8v168H72V244c12.8-0.8,24.8-8,32-18.4c8,11.2,20.8,19.2,36,19.2
	s28-7.2,36-19.2C184,236.8,196.8,244,212,244z"/>
<g>
	<rect x="480" y="468" style="fill:#42210B;" width="16" height="16"/>
	<path style="fill:#42210B;" d="M472,468v16h-16H40H0v-16h32v-24c0-4,3.2-8,8-8h16V226.4C37.6,220.8,24,204,24,184V44V20
		c0-4,3.2-8,8-8h432c4,0,8,4,8,8v24v140c0,16.8-9.6,32-24,39.2V436h8c4,0,8,4,8,8v24H472z M456,184v-24V52h-56v108v24
		c0,15.2,12.8,28,28,28S456,199.2,456,184z M456,36v-8H40v8h64h72h72h72h72H456z M448,468v-16h-8H224H104H64H48v16H448z M432,436
		v-64V244v-16c-1.6,0-2.4,0-4,0l-36-19.2c-8,11.2-20.8,19.2-36,19.2s-28-7.2-36-19.2c-8,11.2-20.8,19.2-36,19.2s-28-7.2-36-19.2
		c-8,11.2-20.8,19.2-36,19.2s-28-7.2-36-19.2c-8,11.2-20.8,19.2-36,19.2s-28-7.2-36-19.2L72,228v16v192h24V268c0-4,3.2-8,8-8h108h12
		c4,0,8,4,8,8v104v64H432z M384,184v-24V52h-56v108v24c0,15.2,12.8,28,28,28S384,199.2,384,184z M312,184v-24V52h-56v108v24
		c0,15.2,12.8,28,28,28S312,199.2,312,184z M240,184v-24V52h-56v108v24c0,15.2,12.8,28,28,28S240,199.2,240,184z M216,436V276H112
		v160H216z M168,184v-24V52h-56v108v24c0,15.2,12.8,28,28,28S168,199.2,168,184z M96,184v-24V52H40v108v24c0,15.2,12.8,28,28,28
		S96,199.2,96,184z"/>
</g>
<path style="fill:#1D9AAE;" d="M456,160v24c0,15.2-12.8,28-28,28s-28-12.8-28-28v-24c0,15.2,12.8,28,28,28S456,175.2,456,160z"/>
<path style="fill:#2FB4C2;" d="M456,52v108c0,15.2-12.8,28-28,28s-28-12.8-28-28V52H456z"/>
<polygon style="fill:#FF7D00;" points="456,28 456,36 392,36 320,36 248,36 176,36 104,36 40,36 40,28 "/>
<polygon style="fill:#CC9966;" points="448,452 448,468 48,468 48,452 64,452 104,452 224,452 440,452 "/>
<path style="fill:#FFF8EF;" d="M432,372v64H232v-64V268c0-4-4-8-8-8h-12v-16c15.2,0,28-7.2,36-19.2c8,11.2,20.8,19.2,36,19.2
	s28-7.2,36-19.2c8,11.2,20.8,19.2,36,19.2s28-7.2,36-19.2c8,11.2,20.8,19.2,36,19.2c1.6,0,2.4,0,4,0V372z M416,372V268c0-4-4-8-8-8
	H264c-4,0-8,4-8,8v104c0,4,4,8,8,8h144C412,380,416,376,416,372z"/>
<path style="fill:#E0CBB5;" d="M432,228v16c-1.6,0-2.4,0-4,0c-15.2,0-28-7.2-36-19.2c-8,11.2-20.8,19.2-36,19.2s-28-7.2-36-19.2
	c-8,11.2-20.8,19.2-36,19.2s-28-7.2-36-19.2c-8,11.2-20.8,19.2-36,19.2s-28-7.2-36-19.2c-8,11.2-20.8,19.2-36,19.2s-28-7.2-36-19.2
	c-7.2,10.4-19.2,17.6-32,18.4v-16c12.8-0.8,24.8-8,32-18.4c8,11.2,20.8,19.2,36,19.2s28-7.2,36-19.2c8,11.2,20.8,19.2,36,19.2
	s28-7.2,36-19.2c8,11.2,20.8,19.2,36,19.2s28-7.2,36-19.2c8,11.2,20.8,19.2,36,19.2s28-7.2,36-19.2c8,11.2,20.8,19.2,36,19.2
	C429.6,228,430.4,228,432,228z"/>
<g>
	<path style="fill:#42210B;" d="M392,208.8l36,19.2C412.8,228,400,220.8,392,208.8z"/>
	<path style="fill:#42210B;" d="M416,268v104c0,4-4,8-8,8H264c-4,0-8-4-8-8V268c0-4,4-8,8-8h144C412,260,416,264,416,268z M400,364
		v-88H272v88H400z"/>
</g>
<rect x="272" y="276" style="fill:#6CD3D8;" width="128" height="88"/>
<path style="fill:#FF7D00;" d="M384,160v24c0,15.2-12.8,28-28,28s-28-12.8-28-28v-24c0,15.2,12.8,28,28,28S384,175.2,384,160z"/>
<path style="fill:#FF9900;" d="M384,52v108c0,15.2-12.8,28-28,28s-28-12.8-28-28V52H384z"/>
<path style="fill:#1D9AAE;" d="M312,160v24c0,15.2-12.8,28-28,28s-28-12.8-28-28v-24c0,15.2,12.8,28,28,28S312,175.2,312,160z"/>
<path style="fill:#2FB4C2;" d="M312,52v108c0,15.2-12.8,28-28,28s-28-12.8-28-28V52H312z"/>
<path style="fill:#FF7D00;" d="M240,160v24c0,15.2-12.8,28-28,28s-28-12.8-28-28v-24c0,15.2,12.8,28,28,28S240,175.2,240,160z"/>
<g>
	<path style="fill:#FF9900;" d="M240,52v108c0,15.2-12.8,28-28,28s-28-12.8-28-28V52H240z"/>
	<path style="fill:#FF9900;" d="M216,276v160H112V276H216z M208,364c0-8.8-7.2-16-16-16s-16,7.2-16,16s7.2,16,16,16
		S208,372.8,208,364z"/>
</g>
<circle style="fill:#42210B;" cx="192" cy="364" r="16"/>
<path style="fill:#1D9AAE;" d="M168,160v24c0,15.2-12.8,28-28,28s-28-12.8-28-28v-24c0,15.2,12.8,28,28,28S168,175.2,168,160z"/>
<path style="fill:#2FB4C2;" d="M168,52v108c0,15.2-12.8,28-28,28s-28-12.8-28-28V52H168z"/>
<path style="fill:#42210B;" d="M72,228l32-18.4C96.8,219.2,84.8,226.4,72,228z"/>
<path style="fill:#FF7D00;" d="M96,160v24c0,15.2-12.8,28-28,28s-28-12.8-28-28v-24c0,15.2,12.8,28,28,28S96,175.2,96,160z"/>
<path style="fill:#FF9900;" d="M96,52v108c0,15.2-12.8,28-28,28s-28-12.8-28-28V52H96z"/>
<path style="fill:#FF7D00;" d="M216,276l-77.6,6.4c-10.4,0.8-18.4,9.6-19.2,20c-2.4,42.4-7.2,140-7.2,133.6c0-8,0-160,0-160H216z"/>
<path style="fill:#1D9AAE;" d="M400,276l-46.4,6.4c-40,5.6-72,35.2-80,74.4L272,364v-88H400z"/>
</svg>